<svg width="55" height="63" viewBox="0 0 55 63" fill="none" xmlns="http://www.w3.org/2000/svg">
<g filter="url(#filter0_d_2_31)">
<path fill-rule="evenodd" clip-rule="evenodd" d="M42.0271 51.9061L37.4541 51.9121C37.2529 51.2725 37.1719 50.6012 37.2151 49.9321C37.17 49.263 37.249 48.5914 37.4481 47.9511L42.0201 47.9441C42.0736 47.9439 42.1261 47.9301 42.1727 47.9038C42.2193 47.8776 42.2583 47.8398 42.2861 47.7941C42.3124 47.7485 42.3263 47.6967 42.3263 47.6441C42.3263 47.5914 42.3124 47.5397 42.2861 47.4941C41.8967 46.8025 41.353 46.21 40.6973 45.7628C40.0416 45.3155 39.2916 45.0256 38.5056 44.9155C37.7196 44.8054 36.9188 44.8781 36.1654 45.1279C35.4121 45.3778 34.7265 45.7981 34.1621 46.3561C33.6729 46.8397 33.2877 47.4182 33.0301 48.0561H20.9771C20.6089 47.1602 19.9954 46.3864 19.207 45.8237C18.4187 45.2609 17.4876 44.932 16.5207 44.8748C15.5538 44.8175 14.5904 45.0343 13.7412 45.5001C12.892 45.9659 12.1915 46.6619 11.7201 47.5081C11.6945 47.5541 11.6815 47.6061 11.6824 47.6587C11.6833 47.7114 11.698 47.7629 11.7251 47.8081C11.7528 47.8538 11.7918 47.8917 11.8384 47.918C11.885 47.9442 11.9376 47.958 11.9911 47.9581L16.5641 47.9511C16.7648 48.5907 16.8455 49.262 16.8021 49.9311C16.8471 50.6001 16.7681 51.2717 16.5691 51.9121L11.9981 51.9191C11.9445 51.9191 11.8918 51.933 11.8452 51.9595C11.7986 51.9859 11.7596 52.024 11.7321 52.0701C11.7058 52.1157 11.6919 52.1674 11.6919 52.2201C11.6919 52.2727 11.7058 52.3245 11.7321 52.3701C12.1786 53.1683 12.83 53.8329 13.6191 54.2952C14.4083 54.7576 15.3065 55.0009 16.2211 55.0001H16.2291C17.5865 55.003 18.8895 54.4671 19.8521 53.5101C20.341 53.0264 20.7259 52.4479 20.9831 51.8101H33.0401C33.4263 52.7543 34.085 53.5621 34.9323 54.1302C35.7796 54.6984 36.777 55.0012 37.7971 55.0001H37.8091C38.7257 55.0005 39.6258 54.7557 40.416 54.2912C41.2062 53.8266 41.8577 53.1592 42.3031 52.3581C42.3287 52.312 42.3417 52.26 42.3408 52.2074C42.3399 52.1547 42.3252 52.1032 42.2981 52.0581C42.2704 52.0124 42.2313 51.9747 42.1847 51.9486C42.1381 51.9225 42.0855 51.9089 42.0321 51.9091L42.0271 51.9061Z" fill="#FFB619"/>
<path fill-rule="evenodd" clip-rule="evenodd" d="M27.009 29.609C30.709 29.609 39.393 25.25 39.393 14.803C39.393 13.346 39.356 11.938 39.234 10.609C39.1952 8.21397 38.4622 5.88167 37.124 3.895C35.377 1.477 32.322 0 27.009 0C21.696 0 18.642 1.477 16.895 3.895C15.5564 5.88228 14.8231 8.21525 14.784 10.611C14.662 11.941 14.625 13.349 14.625 14.806C14.625 25.252 23.313 29.606 27.008 29.606L27.009 29.609ZM31.051 5.423C30.69 6.317 30.509 6.763 30.151 7.657C28.1074 7.01202 25.9147 7.01202 23.871 7.657C23.511 6.763 23.33 6.317 22.971 5.423C25.5967 4.55848 28.4303 4.55848 31.056 5.423H31.051ZM16.467 12.539C16.6116 12.9134 16.8381 13.2508 17.13 13.5263C17.4219 13.8017 17.7718 14.0084 18.154 14.131C19.233 14.258 21.023 10.387 27.008 10.377C32.994 10.386 34.784 14.258 35.862 14.131C36.2441 14.0082 36.5939 13.8016 36.8858 13.5261C37.1777 13.2506 37.4043 12.9134 37.549 12.539C37.577 13.289 37.589 14.048 37.589 14.805C37.6445 16.6814 37.2955 18.5478 36.5658 20.2774C35.8361 22.007 34.7428 23.5593 33.36 24.829C31.6332 26.5063 29.4004 27.5656 27.009 27.842C24.6176 27.5659 22.3846 26.5065 20.658 24.829C19.2744 23.5589 18.1805 22.0058 17.4506 20.2752C16.7207 18.5447 16.3719 16.6773 16.428 14.8C16.428 14.043 16.439 13.284 16.467 12.534V12.539ZM16.467 12.539L49.997 44.793C49.365 40.94 48.064 35.976 45.453 34.212C43.67 33.012 37.453 29.75 34.794 28.359L34.749 28.335C34.6003 28.2573 34.4324 28.2236 34.2652 28.238C34.098 28.2523 33.9383 28.3141 33.805 28.416C32.4732 29.4588 30.9257 30.1916 29.275 30.561C29.1358 30.5907 29.006 30.6545 28.8975 30.7466C28.7889 30.8388 28.7049 30.9564 28.653 31.089L27.009 35.337L25.365 31.089C25.3131 30.9563 25.2289 30.8385 25.1202 30.7463C25.0114 30.6542 24.8815 30.5905 24.742 30.561C23.0903 30.192 21.5417 29.4592 20.209 28.416C20.0754 28.3138 19.9154 28.2519 19.7478 28.2375C19.5802 28.2232 19.412 28.257 19.263 28.335C16.639 29.71 10.343 33.035 8.563 34.207C5.558 36.191 4.244 43.373 4.011 44.793C3.98806 44.9336 4.00113 45.0778 4.049 45.212C4.113 45.388 5.107 47.912 10.078 49.941C10.3659 49.5861 10.7467 49.3181 11.178 49.167C10.6399 48.9815 10.1831 48.6145 9.886 48.129C9.6697 47.7713 9.55172 47.3628 9.54399 46.9449C9.53627 46.527 9.63907 46.1144 9.842 45.749C10.4554 44.6684 11.3331 43.7612 12.3929 43.1124C13.4527 42.4636 14.6598 42.0945 15.9012 42.0396C17.1426 41.9847 18.3776 42.2459 19.4904 42.7987C20.6033 43.3515 21.5576 44.1777 22.264 45.2H31.749C32.0121 44.8162 32.3119 44.4589 32.644 44.133C34.0132 42.7862 35.8584 42.0337 37.779 42.039C39.0743 42.0329 40.3479 42.3715 41.4691 43.0202C42.5902 43.6688 43.5186 44.6041 44.159 45.73C44.3627 46.0951 44.4665 46.5075 44.4598 46.9256C44.4531 47.3437 44.3363 47.7526 44.121 48.111C43.8252 48.5969 43.3695 48.9646 42.832 49.151C43.2697 49.3029 43.6557 49.575 43.946 49.936C48.904 47.908 49.896 45.389 49.96 45.213C50.0081 45.0785 50.0212 44.934 49.998 44.793L16.467 12.539Z" fill="#1C3E9B"/>
</g>
<defs>
<filter id="filter0_d_2_31" x="0" y="0" width="54.0093" height="63.0001" filterUnits="userSpaceOnUse" color-interpolation-filters="sRGB">
<feFlood flood-opacity="0" result="BackgroundImageFix"/>
<feColorMatrix in="SourceAlpha" type="matrix" values="0 0 0 0 0 0 0 0 0 0 0 0 0 0 0 0 0 0 127 0" result="hardAlpha"/>
<feOffset dy="4"/>
<feGaussianBlur stdDeviation="2"/>
<feComposite in2="hardAlpha" operator="out"/>
<feColorMatrix type="matrix" values="0 0 0 0 0 0 0 0 0 0 0 0 0 0 0 0 0 0 0.25 0"/>
<feBlend mode="normal" in2="BackgroundImageFix" result="effect1_dropShadow_2_31"/>
<feBlend mode="normal" in="SourceGraphic" in2="effect1_dropShadow_2_31" result="shape"/>
</filter>
</defs>
</svg>
